# xmcd
#
# Track frame offsets: 
#        150
#        17512
#        35449
#        63427
#        80305
#        106674
#        122939
#        139841
#        167976
#        196282
#        215281
#        235025
#
# Disc length: 3376 seconds
#
# Revision: 0
# Processed by: cddbd v1.5.2PL0 Copyright (c) Steve Scherf et al.
# Submitted via: ExactAudioCopy v0.99pb5
#
DISCID=9a0d2e0c
DTITLE=Michael Melone - Michael Melone
DYEAR=2008
DGENRE=Blues
TTITLE0=The Way You Look Tonight
TTITLE1=They Can't Take That Away From Me
TTITLE2=Someone To Watch Over Me - Bewitched
TTITLE3=But Not For Me
TTITLE4=Love Look Away - Once Upon A Time
TTITLE5=Nocturne In E Flat
TTITLE6=A Song For You
TTITLE7=Harlen Nocturne - New York State Of Mind
TTITLE8=You Dont Know Me - I Can't Stop Loving Away
TTITLE9=Breaking Up To Hard To Do
TTITLE10=Send In The Clowns - I Think About You
TTITLE11=Autumn Leaves - When October Goes
EXTD=
EXTT0=
EXTT1=
EXTT2=
EXTT3=
EXTT4=
EXTT5=
EXTT6=
EXTT7=
EXTT8=
EXTT9=
EXTT10=
EXTT11=
PLAYORDER=
